<svg version="1.2" xmlns="http://www.w3.org/2000/svg" viewBox="0 0 355 345" width="355" height="345"><style>tspan{white-space:pre}.a{fill:#9a9a9a}.b{fill:#eee}</style><path fill-rule="evenodd" class="a" d="m0 0h355v345h-355z"/><path fill-rule="evenodd" class="b" d="m219.2 157.5l-22.9 22.8c-2.1 2.1-5.5 2.1-7.6 0l-3.8-3.8 22.8-22.8-11.4-11.4-22.8 22.8-3.8-3.8c-2.1-2.1-2.1-5.5 0-7.6l22.8-22.8c2.1-2.1 5.5-2.1 7.6 0l19.1 19c2.1 2.1 2.1 5.5 0 7.6zm-37.8 3.5c2.1-2.1 5.5-2.1 7.6 0 2.1 2.2 2.1 5.6 0 7.7l-9.2 9.1 5.7 5.7c2.1 2.1 2.1 5.5 0 7.6l-22.8 22.9c-2.1 2.1-5.5 2.1-7.6 0l-19.1-19.1c-2.1-2.1-2.1-5.5 0-7.6l22.9-22.8c2.1-2.1 5.5-2.1 7.6 0l5.7 5.7zm-11.1 7.3l-22.8 22.8 11.4 11.5 22.8-22.9-1.9-1.9-6 6c-2.1 2.1-5.5 2.1-7.6 0-2.1-2.1-2.1-5.5 0-7.6l6-6z"/></svg>