<svg version="1.2" xmlns="http://www.w3.org/2000/svg" viewBox="0 0 678 391" width="678" height="391"><style>tspan{white-space:pre}.a{fill:#fff}.b{fill-opacity:.1;fill:#fff}</style><path fill-rule="evenodd" class="a" d="m677.2 370.2v10.6c0 0.3 0 1-0.6 1.5q-0.4 0.3-0.8 0.6 0 0 0 0c-4.6 3.2-16.3 8-29.5 8h-615.3c-13.2 0-24.9-4.8-29.5-8q0 0 0 0-0.3-0.2-0.6-0.5c-0.8-0.5-0.8-1.4-0.8-1.7v-10.5c0-0.6 0.5-1.1 1.1-1.1h62.6c-0.7-2.1-1.1-4.3-1.1-6.6v-341.5c0-11.3 9.2-20.5 20.6-20.5h510.8c11.4 0 20.6 9.2 20.6 20.5v341.5c0 2.3-0.4 4.5-1.2 6.6h62.6c0.6 0 1.1 0.5 1.1 1.1zm-611.8-1.1h54.2l0.1-0.3 1.7-7.4h-48.2c-4 0-7.2-3.2-7.2-7.1v-333.5c0-9.4 7.7-17 17-17h511.4c9.3 0 16.9 7.6 16.9 17v333.5c0 3.9-3.1 7.1-7.1 7.1h-49.8l1.6 7.4 0.1 0.3h55.9c0.8-2.1 1.2-4.3 1.2-6.6v-341.5c0-10.5-8.5-19.1-19.1-19.1h-510.8c-10.6 0-19.1 8.6-19.1 19.1v341.5c0 2.3 0.4 4.5 1.2 6.6zm489.2 0l-1.7-7.7h-430.1l-1.7 7.7zm-262.4 1.5c0.4 2.3 2.7 6.2 6.7 6.2h79.4c4 0 6.3-3.9 6.7-6.2zm312-10.6c3.1 0 5.7-2.6 5.7-5.7v-333.5c0-8.6-7-15.6-15.6-15.6h-511.3c-8.6 0-15.6 7-15.6 15.6v333.5c0 3.1 2.6 5.7 5.7 5.7zm-602.7 20.7c0 0.4 0.1 0.5 0.2 0.6q0.2 0.1 0.4 0.3h673.1q0.3-0.2 0.5-0.4c0.1-0.1 0.1-0.2 0.1-0.4v-10.2h-289.3c-0.4 2.9-3.2 7.6-8.1 7.6h-79.5c-4.8 0-7.7-4.7-8.1-7.6h-289.3zm671.4 2.3h-668.5c5.4 2.9 15.5 6.4 26.6 6.4h615.4c11.1 0 21.1-3.5 26.5-6.4zm-75.5-358.7v322c0 1-0.8 1.8-1.8 1.8h-514.3c-1 0-1.8-0.8-1.8-1.8v-322c0-1 0.8-1.8 1.8-1.8h514.3c1 0 1.8 0.8 1.8 1.8zm-1.8 0h-514.3v322h514.3zm-259.7-9.6c0-1.5 1.3-2.8 2.9-2.8 1.6 0 2.8 1.3 2.8 2.8 0 1.6-1.2 2.9-2.8 2.9-1.6 0-2.9-1.3-2.9-2.9zm1.5 0c0 0.8 0.6 1.5 1.4 1.5 0.8 0 1.4-0.7 1.4-1.5 0-0.7-0.6-1.4-1.4-1.4-0.8 0-1.4 0.7-1.4 1.4zm-108.3 372.9c-0.3-0.3-0.4-0.7-0.2-1q0.4-1 3.4-1.1 0.2 0 0.4 0c0.6 0 3.5 0.1 4.3 1 0.3 0.3 0.3 0.6 0.2 1q-0.4 1-3.4 1.1-0.2 0-0.4 0c-0.6 0-3.5-0.1-4.3-1zm210.2-0.1c-0.1-0.4-0.1-0.7 0.2-1 0.8-0.9 3.7-1 4.3-1q0.2 0 0.4 0 3 0.1 3.4 1.1c0.2 0.3 0.1 0.7-0.2 1-0.8 0.9-3.7 1-4.3 1q-0.2 0-0.4 0-3-0.1-3.4-1.1z"/><path class="b" d="m595.6 24.4h-514.3v321.6h514.3v-321.6"/><path fill-rule="evenodd" class="a" d="m349.9 209.2l1.8 1.8-13.4 13.5-13.5-13.5 1.9-1.8 10.2 10.2v-41.9h2.7v41.9zm28.1-23c0 8-6.4 14.5-14.5 14.6h-18.6v-2.7h18 0.6c6.6 0 11.9-5.4 11.9-11.9 0-6.6-5.3-11.9-11.9-11.9h-2.7l0.1-2.7q0-0.2 0-0.4 0-0.1 0-0.2c0-9.9-8-17.9-17.9-17.9-6.8 0-13.2 4-16.1 10.2l-1.2 2.4-2.4-1.2q-1.7-0.8-3.6-0.8c-3.8 0-7.1 2.7-7.8 6.6l-0.3 1.5-1.4 0.5c-5.4 1.9-9 6.9-9 12.6 0 7.3 5.9 13.2 13.2 13.2h17.3v2.7h-17.3c-8.7 0-15.8-7.2-15.8-15.9 0-7 4.5-12.9 10.7-15.1 0.8-5 5.2-8.8 10.4-8.8 1.7 0 3.4 0.4 4.8 1.1 3.3-6.9 10.3-11.6 18.5-11.6 11.3 0 20.5 9.1 20.5 20.5q0 0.3 0 0.6c8 0 14.5 6.6 14.5 14.6zm39.8-1.3c0 43.9-35.6 79.5-79.5 79.5-43.9 0-79.5-35.6-79.5-79.5 0-43.9 35.6-79.5 79.5-79.5 43.9 0 79.5 35.6 79.5 79.5zm-2.7 0c0-42.4-34.4-76.9-76.8-76.9-42.4 0-76.9 34.5-76.9 76.9 0 42.3 34.5 76.8 76.9 76.8 42.4 0 76.8-34.5 76.8-76.8z"/></svg>