<svg version="1.2" xmlns="http://www.w3.org/2000/svg" viewBox="0 0 225 225" width="225" height="225"><defs><clipPath clipPathUnits="userSpaceOnUse" id="cp1"><path d="m113 10c56.89 0 103 46.11 103 103 0 56.89-46.11 103-103 103-56.89 0-103-46.11-103-103 0-56.89 46.11-103 103-103z"/></clipPath></defs><style>tspan{white-space:pre}.a{fill:#ccc}.b{fill:#eee}</style><path fill-rule="evenodd" class="a" d="m112.5 0c62.1 0 112.5 50.4 112.5 112.5 0 62.1-50.4 112.5-112.5 112.5-62.1 0-112.5-50.4-112.5-112.5 0-62.1 50.4-112.5 112.5-112.5z"/><g clip-path="url(#cp1)"><path fill-rule="evenodd" class="b" d="m113 10c56.9 0 103 46.1 103 103 0 56.9-46.1 103-103 103-56.9 0-103-46.1-103-103 0-56.9 46.1-103 103-103z"/><path fill-rule="evenodd" class="a" d="m113 63c25.4 0 40.2 19.3 40.2 45.9 0 12-4.7 26.1-11.5 34.5-8.4 10.3-14.7 16-28.7 16-14.2 0-20.3-5.3-28.7-16-6.6-8.4-11.5-22.8-11.5-34.5 0-26.6 14.8-45.9 40.2-45.9zm-91.8 155l17.2-34.5 45.9-5.7 11.5-11.5 11.5 23-11.5 28.7zm120.5-40.2l45.9 5.7 17.2 34.4h-74.6l-11.4-28.6 11.4-23zm-45.9 40.2h34.5l-0.1-0.1-34.4 0.1z"/></g></svg>