<svg version="1.2" xmlns="http://www.w3.org/2000/svg" viewBox="0 0 225 225" width="225" height="225"><defs><clipPath clipPathUnits="userSpaceOnUse" id="cp1"><path d="m113 10c56.89 0 103 46.11 103 103 0 56.89-46.11 103-103 103-56.89 0-103-46.11-103-103 0-56.89 46.11-103 103-103z"/></clipPath></defs><style>tspan{white-space:pre}.a{fill:#ccc}.b{fill:#eee}</style><path fill-rule="evenodd" class="a" d="m112.5 0c62.1 0 112.5 50.4 112.5 112.5 0 62.1-50.4 112.5-112.5 112.5-62.1 0-112.5-50.4-112.5-112.5 0-62.1 50.4-112.5 112.5-112.5z"/><g clip-path="url(#cp1)"><path fill-rule="evenodd" class="b" d="m113 10c56.9 0 103 46.1 103 103 0 56.9-46.1 103-103 103-56.9 0-103-46.1-103-103 0-56.9 46.1-103 103-103z"/><path class="a" d="m113 61c25.4 0 45.9 21.6 45.9 48.2 0 26.7-20.5 48.3-45.9 48.3-25.4 0-45.9-21.6-45.9-48.3 0-26.6 20.5-48.2 45.9-48.2zm-45.9 48.2h91.8v49.4h-91.8zm137.8 106.8c-20-31.7-53.7-52.5-91.9-52.5-38.2 0-71.9 20.8-91.9 52.5 45 0 108.3 0 183.8 0z"/></g></svg>