<svg version="1.2" xmlns="http://www.w3.org/2000/svg" viewBox="0 0 233 418" width="233" height="418"><defs><clipPath clipPathUnits="userSpaceOnUse" id="cp1"><path d="m119 10c56.89 0 103 46.11 103 103 0 56.89-46.11 103-103 103-56.89 0-103-46.11-103-103 0-56.89 46.11-103 103-103z"/></clipPath></defs><style>tspan{white-space:pre}.a{fill:#ccc}.b{fill:#eee}.c{font-size: 25px;line-height: 18px;fill: #6b6b6b;font-family: "Proxima Nova"}.d{font-size: 15px;line-height: 25px;fill: #6b6b6b;font-weight: 300;font-family: "Proxima Nova"}.e{fill:#2c3e50}.f{fill:#eee;stroke:#eee;paint-order:stroke fill markers;stroke-linejoin:round;stroke-width:4}</style><path fill-rule="evenodd" class="a" d="m118.5 0c62.1 0 112.5 50.4 112.5 112.5 0 62.1-50.4 112.5-112.5 112.5-62.1 0-112.5-50.4-112.5-112.5 0-62.1 50.4-112.5 112.5-112.5z"/><g clip-path="url(#cp1)"><path fill-rule="evenodd" class="b" d="m119 10c56.9 0 103 46.1 103 103 0 56.9-46.1 103-103 103-56.9 0-103-46.1-103-103 0-56.9 46.1-103 103-103z"/><path fill-rule="evenodd" class="a" d="m119 63c25.4 0 40.2 19.3 40.2 45.9 0 12-4.7 26.1-11.5 34.5-8.4 10.3-14.7 16-28.7 16-14.2 0-20.3-5.3-28.7-16-6.6-8.4-11.5-22.8-11.5-34.5 0-26.6 14.8-45.9 40.2-45.9zm-91.8 155l17.2-34.5 45.9-5.7 11.5-11.5 11.5 23-11.5 28.7zm120.5-40.2l45.9 5.7 17.2 34.4h-74.6l-11.4-28.6 11.4-23zm-45.9 40.2h34.5l-0.1-0.1-34.4 0.1z"/></g><text style="transform:matrix(1,0,0,1,117,262)" ><tspan x="-36.9" y="0" class="c">Name
</tspan></text><text style="transform:matrix(1,0,0,1,-13,282)" ><tspan x="24.3" y="11.4" class="d">L</tspan><tspan  y="11.4" class="d">orem ipsum dolor sit amet, 
</tspan><tspan x="24.2" y="36.4" class="d">consectetuer adipiscing elit. </tspan><tspan x="20" y="61.4" class="d">Aenean commodo ligula eget </tspan><tspan x="109.2" y="86.4" class="d">dolor. 
</tspan></text><path fill-rule="evenodd" class="e" d="m75 376h77c1.7 0 3 1.3 3 3v36c0 1.7-1.3 3-3 3h-77c-1.7 0-3-1.3-3-3v-36c0-1.7 1.3-3 3-3z"/><path fill-rule="evenodd" class="f" d="m126.8 405h-25.6v-14.4l12.8 6.4 12.8-6.4zm-12.8-9.6l-12.8-6.4h25.6z"/></svg>